# xmcd
#
# Track frame offsets: 
#        150
#        13731
#        29041
#        46410
#        63705
#        77308
#        94395
#        112956
#        129577
#        146086
#
# Disc length: 2142 seconds
#
# Revision: 0
# Processed by: cddbd v1.5.2PL0 Copyright (c) Steve Scherf et al.
# Submitted via: ExactAudioCopyFreeDBPlugin 1.0
#
DISCID=8a085c0a
DTITLE=Various Artist - Fantazi
DYEAR=2013
DGENRE=Avantgarde
TTITLE0=Mos M'Gjuj
TTITLE1=Fantazi
TTITLE2=Të fala ke nga unë
TTITLE3=Hej DJ
TTITLE4=Djali i Kosovës
TTITLE5=Hej Shokë
TTITLE6=Një Fotografia
TTITLE7=Ah Brune
TTITLE8=Sytë Blu
TTITLE9=Lojëm e Nise
EXTD=
EXTT0=
EXTT1=
EXTT2=
EXTT3=
EXTT4=
EXTT5=
EXTT6=
EXTT7=
EXTT8=
EXTT9=
PLAYORDER=
